<svg xmlns="http://www.w3.org/2000/svg"><symbol viewBox="300 -148.5 37.4 20" id="icon-arrow-down"><title>arrow-down</title><path fill="currentColor" d="M300.4-146.3c-0.3-0.3-0.4-0.6-0.4-0.9c0-0.4,0.1-0.7,0.4-0.9c0.5-0.5,1.4-0.5,1.9,0l16.4,16.4l16.4-16.4 c0.5-0.5,1.4-0.5,1.9,0s0.5,1.4,0,1.9l-17.4,17.4c-0.5,0.5-1.4,0.5-1.9,0L300.4-146.3z"/></symbol><symbol viewBox="308.6 -157.2 20 37.4" id="icon-arrow-left"><title>arrow-left</title><path fill="currentColor" d="M326.5-156.8c0.3-0.3,0.6-0.4,0.9-0.4c0.4,0,0.7,0.1,0.9,0.4c0.5,0.5,0.5,1.4,0,1.9l-16.4,16.4l16.4,16.4 c0.5,0.5,0.5,1.4,0,1.9s-1.4,0.5-1.9,0L309-137.6c-0.5-0.5-0.5-1.4,0-1.9L326.5-156.8z"/></symbol><symbol viewBox="342.6 -184.2 22 40" id="icon-arrow-right"><title>arrow-right</title><path fill="currentColor" d="M344.8-147.2c-0.3,0.3-0.6,0.4-0.9,0.4c-0.4,0-0.7-0.1-0.9-0.4c-0.5-0.5-0.5-1.4,0-1.9l16.4-16.4L343-181.9 c-0.5-0.5-0.5-1.4,0-1.9c0.5-0.5,1.4-0.5,1.9,0l17.4,17.4c0.5,0.5,0.5,1.4,0,1.9L344.8-147.2z"/></symbol><symbol viewBox="0 0 52 52" id="icon-close-rounded"><title>close-rounded</title><path d="M26,0C11.664,0,0,11.663,0,26s11.664,26,26,26s26-11.663,26-26S40.336,0,26,0z M26,50C12.767,50,2,39.233,2,26   S12.767,2,26,2s24,10.767,24,24S39.233,50,26,50z" fill="currentColor"/><path d="M35.707,16.293c-0.391-0.391-1.023-0.391-1.414,0L26,24.586l-8.293-8.293c-0.391-0.391-1.023-0.391-1.414,0  s-0.391,1.023,0,1.414L24.586,26l-8.293,8.293c-0.391,0.391-0.391,1.023,0,1.414C16.488,35.902,16.744,36,17,36  s0.512-0.098,0.707-0.293L26,27.414l8.293,8.293C34.488,35.902,34.744,36,35,36s0.512-0.098,0.707-0.293   c0.391-0.391,0.391-1.023,0-1.414L27.414,26l8.293-8.293C36.098,17.316,36.098,16.684,35.707,16.293z" fill="currentColor"/></symbol><symbol viewBox="274 -210 383.9 512" id="icon-document"><title>document</title><path fill="currentColor" d="M657.9-106.4c0-3.1-1.2-6.1-3.5-8.4l-91.8-91.8c0,0,0,0,0,0c-2.2-2.2-5.2-3.5-8.5-3.5H299.3 c-13.9,0-25.2,11.3-25.2,25.2v461.5c0,13.9,11.3,25.2,25.2,25.2h333.4c13.9,0,25.2-11.3,25.2-25.2v-383 C658-106.3,657.9-106.3,657.9-106.4z M566.2-169.1l50.8,50.8h-49.6c-0.7,0-1.3-0.6-1.3-1.3V-169.1L566.2-169.1z M634,276.8 c0,0.7-0.6,1.3-1.3,1.3H299.3c-0.7,0-1.3-0.6-1.3-1.3v-461.5c0-0.7,0.6-1.3,1.3-1.3h242.9v66.5c0,13.9,11.3,25.2,25.2,25.2H634 L634,276.8L634,276.8z"/><path fill="currentColor" d="M572.1-46H359.9c-6.6,0-12,5.4-12,12c0,6.6,5.4,12,12,12h212.2c6.6,0,12-5.4,12-12 C584.1-40.6,578.7-46,572.1-46z"/><path fill="currentColor" d="M572.1,26.4H359.9c-6.6,0-12,5.4-12,12c0,6.6,5.4,12,12,12h212.2c6.6,0,12-5.4,12-12 C584.1,31.7,578.7,26.4,572.1,26.4z"/><path fill="currentColor" d="M572.1,98.7H359.9c-6.6,0-12,5.4-12,12c0,6.6,5.4,12,12,12h212.2c6.6,0,12-5.4,12-12 C584.1,104.1,578.7,98.7,572.1,98.7z"/><path fill="currentColor" d="M466,171H359.9c-6.6,0-12,5.4-12,12c0,6.6,5.4,12,12,12H466c6.6,0,12-5.4,12-12S472.6,171,466,171z"/></symbol><symbol viewBox="-16 20.3 17 11.7" id="icon-email"><title>email</title><path fill="currentColor" d="M0.5,20.3h-16c0,0,0,0,0,0c0,0,0,0,0,0h0c0,0-0.1,0-0.1,0c0,0,0,0-0.1,0c0,0,0,0-0.1,0c0,0-0.1,0-0.1,0.1c0,0,0,0,0,0 c0,0,0,0,0,0.1c0,0,0,0.1-0.1,0.1c0,0,0,0.1,0,0.1c0,0,0,0,0,0.1v10.7c0,0,0,0,0,0.1c0,0,0,0.1,0,0.1c0,0,0,0.1,0.1,0.1 c0,0,0,0,0,0.1c0,0,0,0,0,0c0.1,0.1,0.2,0.2,0.4,0.2h16c0.1,0,0.3-0.1,0.4-0.2c0,0,0,0,0,0c0,0,0,0,0-0.1c0,0,0-0.1,0.1-0.1 c0,0,0-0.1,0-0.1c0,0,0,0,0-0.1V20.8C1,20.5,0.8,20.3,0.5,20.3z M-0.9,21.3l-6.7,6.2l-1.8-1.7c0,0,0,0,0-0.1c0,0-0.1-0.1-0.1-0.1 l-4.7-4.4H-0.9z M-15,22l4.5,4.2l-4.5,4.2V22z M-14.2,31l4.4-4.2l1.6,1.5c0.2,0.2,0.4,0.3,0.7,0.3c0.3,0,0.5-0.1,0.7-0.3l1.6-1.5 l4.5,4.2H-14.2z M0,30.3l-4.5-4.3L0,21.9V30.3z"/></symbol><symbol viewBox="420.4 -419.9 435.4 511.9" id="icon-login"><title>login</title><path fill="currentColor" d="M636.1-144.1c0.5,0,1.1,0,1.7,0c0.2,0,0.4,0,0.6,0c0.3,0,0.7,0,1.1,0c31.1-0.5,56.2-11.5,74.7-32.3 c40.8-46,34-124.9,33.3-132.4c-2.7-56.5-29.4-83.5-51.4-96.2c-16.4-9.4-35.6-14.5-57-14.9h-0.7c-0.1,0-0.3,0-0.4,0h-0.6 c-11.8,0-34.9,1.9-57,14.5c-22.3,12.6-49.4,39.7-52.1,96.6c-0.7,7.5-7.5,86.4,33.3,132.4C580-155.6,605.1-144.7,636.1-144.1z M556.5-306.2c0-0.3,0.1-0.6,0.1-0.8c3.5-76,57.5-84.2,80.6-84.2h0.4c0.2,0,0.5,0,0.8,0c28.6,0.6,77.3,12.3,80.6,84.2 c0,0.3,0,0.6,0.1,0.8c0.1,0.7,7.5,72.8-26.2,110.8c-13.4,15.1-31.2,22.5-54.6,22.7c-0.2,0-0.3,0-0.5,0s-0.3,0-0.5,0 c-23.3-0.2-41.2-7.6-54.5-22.7C549.2-233.2,556.4-305.6,556.5-306.2z"/> <path fill="currentColor" d="M855.7-13.3c0-0.1,0-0.2,0-0.3c0-0.8-0.1-1.7-0.1-2.7c-0.6-21-2-70.1-48-85.8c-0.3-0.1-0.7-0.2-1.1-0.3 c-47.8-12.2-87.6-39.8-88-40.1c-6.5-4.6-15.4-3-19.9,3.5c-4.6,6.5-3,15.4,3.5,19.9c1.8,1.3,44,30.6,96.8,44.2 c24.7,8.8,27.5,35.2,28.2,59.4c0,1,0,1.8,0.1,2.7c0.1,9.5-0.5,24.3-2.2,32.8c-17.2,9.8-84.5,43.5-186.9,43.5 c-102,0-169.7-33.8-187-43.6c-1.7-8.5-2.4-23.2-2.2-32.8c0-0.8,0.1-1.7,0.1-2.7c0.7-24.2,3.5-50.6,28.2-59.4 c52.8-13.6,95-43,96.8-44.2c6.5-4.6,8.1-13.5,3.5-19.9c-4.6-6.4-13.5-8.1-19.9-3.5c-0.4,0.3-40,27.9-88,40.1 c-0.4,0.1-0.7,0.2-1.1,0.3c-46,15.8-47.4,64.9-48,85.8c0,1,0,1.8-0.1,2.7c0,0.1,0,0.2,0,0.3c-0.1,5.5-0.2,33.8,5.4,48 c1.1,2.8,3,5.1,5.5,6.7c3.2,2.1,79.4,50.7,207,50.7s203.8-48.7,207-50.7c2.4-1.6,4.5-3.9,5.5-6.7C855.9,20.5,855.8-7.8,855.7-13.3z"/></symbol><symbol viewBox="-262.2 -174.5 20 18.2" id="icon-menu"><title>menu</title><rect x="-262.2" y="-160" fill="currentColor" width="20" height="3.6"/><rect x="-262.2" y="-167.1" fill="currentColor" width="20" height="3.6"/><rect x="-262.2" y="-174.5" fill="currentColor" width="20" height="3.6"/></symbol><symbol viewBox="0 0 17 11.4" id="icon-tel"><title>tel</title><path fill="currentColor" d="M0.7,2.3C0.4,2.6,0.1,2.9,0,3.4c-0.1,0.5,0,0.9,0.3,1.3L1,5.5C1.3,5.9,2,6,2.4,5.7c0.8-0.5,1.6-1,2.4-1.3 c0.4-0.2,0.7-0.5,0.7-1V2.5c0-0.1,0-0.2,0-0.2c1.9-0.5,3.9-0.5,5.8,0.1l0,1c0,0.4,0.3,0.8,0.7,1c0.9,0.3,1.7,0.7,2.4,1.3 c0.2,0.1,0.4,0.2,0.6,0.2c0.3,0,0.6-0.1,0.8-0.4l0.6-0.8c0.3-0.4,0.4-0.8,0.3-1.3c-0.1-0.4-0.3-0.8-0.7-1.1c0,0,0,0,0,0 C14,0.8,11.3,0,8.7,0H8.3C5.7,0,3,0.8,0.7,2.3z M16,3.6c0,0.2,0,0.4-0.1,0.5l-0.7,0.8c-0.8-0.6-1.7-1.1-2.7-1.5l0-0.9 c0-0.5-0.3-0.9-0.8-1C10.6,1.2,9.6,1,8.5,1c-1,0-2.1,0.1-3.1,0.4C4.9,1.5,4.6,2,4.6,2.5l0,0.9C3.6,3.8,2.7,4.3,1.8,4.9L1.1,4.1 C1,3.9,1,3.7,1,3.6c0-0.2,0.1-0.3,0.3-0.4c4.4-2.9,10.1-2.9,14.5,0C15.9,3.2,16,3.4,16,3.6z"/><path fill="currentColor" d="M15,10.9V8.8c0-1-0.5-2-1.2-2.7L12,4.6c-0.2-0.2-0.4-0.2-0.6-0.2H11v-1c0-0.3-0.2-0.5-0.5-0.5h-1 C9.2,2.9,9,3.1,9,3.4v1H8v-1c0-0.3-0.2-0.5-0.5-0.5h-1C6.2,2.9,6,3.1,6,3.4v1H5.6C5.4,4.4,5.2,4.5,5,4.6L3.2,6.1 C2.5,6.8,2,7.8,2,8.8v2.1c0,0.3,0.2,0.5,0.5,0.5h12C14.8,11.4,15,11.2,15,10.9z M14,10.4H3V8.8c0-0.7,0.3-1.4,0.9-1.9l1.8-1.5h0.9 C6.8,5.4,7,5.2,7,4.9c0,0.3,0.2,0.5,0.5,0.5h2c0.3,0,0.5-0.2,0.5-0.5c0,0.3,0.2,0.5,0.5,0.5l0.8,0l1.8,1.5C13.7,7.4,14,8.1,14,8.8 V10.4z"/><rect x="8" y="7.1" fill="currentColor" width="1" height="1"/><rect x="8" y="8.6" fill="currentColor" width="1" height="1"/><rect x="8" y="5.6" fill="currentColor" width="1" height="1"/><rect x="9.5" y="7.1" fill="currentColor" width="1" height="1"/><rect x="9.5" y="8.6" fill="currentColor" width="1" height="1"/><rect x="9.5" y="5.6" fill="currentColor" width="1" height="1"/><rect x="6.5" y="7.1" fill="currentColor" width="1" height="1"/><rect x="6.5" y="8.6" fill="currentColor" width="1" height="1"/><rect x="6.5" y="5.6" fill="currentColor" width="1" height="1"/></symbol><symbol viewBox="0 0 24 24" id="icon-web"><title>web</title><path fill="currentColor" d="M13.144 8.171c-.035-.066.342-.102.409-.102.074.009-.196.452-.409.102zm-2.152-3.072l.108-.031c.064.055-.072.095-.051.136.086.155.021.248.008.332-.014.085-.104.048-.149.093-.053.066.258.075.262.085.011.033-.375.089-.304.171.096.136.824-.195.708-.176.225-.113.029-.125-.097-.19-.043-.215-.079-.547-.213-.68l.088-.102c-.206-.299-.36.362-.36.362zm13.008 6.901c0 6.627-5.373 12-12 12-6.628 0-12-5.373-12-12s5.372-12 12-12c6.627 0 12 5.373 12 12zm-8.31-5.371c-.006-.146-.19-.284-.382-.031-.135.174-.111.439-.184.557-.104.175.567.339.567.174.025-.277.732-.063.87-.025.248.069.643-.226.211-.381-.355-.13-.542-.269-.574-.523 0 0 .188-.176.106-.166-.218.027-.614.786-.614.395zm6.296 5.371c0-1.035-.177-2.08-.357-2.632-.058-.174-.189-.312-.359-.378-.256-.1-1.337.597-1.5.254-.107-.229-.324.146-.572.008-.12-.066-.454-.515-.605-.46-.309.111.474.964.688 1.076.201-.152.852-.465.992-.038.268.804-.737 1.685-1.251 2.149-.768.694-.624-.449-1.147-.852-.275-.211-.272-.66-.55-.815-.124-.07-.693-.725-.688-.813l-.017.166c-.094.071-.294-.268-.315-.321 0 .295.48.765.639 1.001.271.405.416.995.748 1.326.178.178.858.914 1.035.898.193-.017.803-.458.911-.433.644.152-1.516 3.205-1.721 3.583-.169.317.138 1.101.113 1.476-.029.433-.37.573-.693.809-.346.253-.265.745-.556.925-.517.318-.889 1.353-1.623 1.348-.216-.001-1.14.36-1.261.007-.094-.256-.22-.45-.353-.703-.13-.248-.015-.505-.173-.724-.109-.152-.475-.497-.508-.677-.002-.155.117-.626.28-.708.229-.117.044-.458.016-.656-.048-.354-.267-.646-.53-.851-.389-.299-.188-.537-.097-.964 0-.204-.124-.472-.398-.392-.564.164-.393-.44-.804-.413-.296.021-.538.209-.813.292-.346.104-.7-.082-1.042-.125-1.407-.178-1.866-1.786-1.499-2.946.037-.19-.114-.542-.048-.689.158-.352.48-.747.762-1.014.158-.15.361-.112.547-.229.287-.181.291-.553.572-.781.4-.325.946-.318 1.468-.388.278-.037 1.336-.266 1.503-.06 0 .038.191.604-.019.572.433.023 1.05.749 1.461.579.211-.088.134-.736.567-.423.262.188 1.436.272 1.68.069.15-.124.234-.93.052-1.021.116.115-.611.124-.679.098-.12-.044-.232.114-.425.025.116.055-.646-.354-.218-.667-.179.131-.346-.037-.539.107-.133.108.062.18-.128.274-.302.153-.53-.525-.644-.602-.116-.076-1.014-.706-.77-.295l.789.785c-.039.025-.207-.286-.207-.059.053-.135.02.579-.104.347-.055-.089.09-.139.006-.268 0-.085-.228-.168-.272-.226-.125-.155-.457-.497-.637-.579-.05-.023-.764.087-.824.11-.07.098-.13.201-.179.311-.148.055-.287.126-.419.214l-.157.353c-.068.061-.765.291-.769.3.029-.075-.487-.171-.453-.321.038-.165.213-.68.168-.868-.048-.197 1.074.284 1.146-.235.029-.225.046-.487-.313-.525.068.008.695-.246.799-.36.146-.168.481-.442.724-.442.284 0 .223-.413.354-.615.131.053-.07.376.087.507-.01-.103.445.057.489.033.104-.054.684-.022.594-.294-.1-.277.051-.195.181-.253-.022.009.34-.619.402-.413-.043-.212-.421.074-.553.063-.305-.024-.176-.52-.061-.665.089-.115-.243-.256-.247-.036-.006.329-.312.627-.241 1.064.108.659-.735-.159-.809-.114-.28.17-.509-.214-.364-.444.148-.235.505-.224.652-.476.104-.178.225-.385.385-.52.535-.449.683-.09 1.216-.041.521.048.176.124.104.324-.069.19.286.258.409.099.07-.092.229-.323.298-.494.089-.222.901-.197.334-.536-.374-.223-2.004-.672-3.096-.672-.236 0-.401.263-.581.412-.356.295-1.268.874-1.775.698-.519-.179-1.63.66-1.808.666-.065.004.004-.634.358-.681-.153.023 1.247-.707 1.209-.859-.046-.18-2.799.822-2.676 1.023.059.092.299.092-.016.294-.18.109-.372.801-.541.801-.505.221-.537-.435-1.099.409l-.894.36c-1.328 1.411-2.247 3.198-2.58 5.183-.013.079.334.226.379.28.112.134.112.712.167.901.138.478.479.744.74 1.179.154.259.41.914.329 1.186.108-.178 1.07.815 1.246 1.022.414.487.733 1.077.061 1.559-.217.156.33 1.129.048 1.368l-.361.093c-.356.219-.195.756.021.982 1.818 1.901 4.38 3.087 7.22 3.087 5.517 0 9.989-4.472 9.989-9.989zm-11.507-6.357c.125-.055.293-.053.311-.22.015-.148.044-.046.08-.1.035-.053-.067-.138-.11-.146-.064-.014-.108.069-.149.104l-.072.019-.068.087.008.048-.087.106c-.085.084.002.139.087.102z"/></symbol></svg>