<?xml version="1.0" encoding="UTF-8"?><svg width="35px" height="24px" viewBox="0 0 35 24" version="1.1" xmlns="http://www.w3.org/2000/svg" xmlns:xlink="http://www.w3.org/1999/xlink"><g stroke="none" stroke-width="1" fill="none" fill-rule="evenodd"><g transform="translate(-605.000000, -658.000000)" fill="#FFFFFF"><g transform="translate(605.000000, 658.000000)"><path d="M35,12.0002044 C35,11.7091616 34.8796875,11.4311993 34.6795313,11.22191 L23.8525,0.322518139 C23.4248438,-0.108050898 22.7325,-0.10696085 22.3059375,0.322518139 C21.8782813,0.751997128 21.8782813,1.44962797 22.3059375,1.87910696 L31.2670312,10.8992558 L1.09375,10.8992558 C0.49,10.8992558 0,11.3919576 0,12.0002044 C0,12.6084513 0.49,13.1011531 1.09375,13.1011531 L31.2659375,13.1011531 L22.3059375,22.1213019 C21.8782813,22.5507809 21.879375,23.2484118 22.3059375,23.6778908 C22.7335937,24.1073697 23.4259375,24.1073697 23.8525,23.6778908 L34.6795313,12.7784989 C34.8840625,12.5724798 34.9967187,12.2890672 35,12.0002044 Z" id="Arrow_Forward"></path></g></g></g></svg>