<svg xmlns="http://www.w3.org/2000/svg"><symbol viewBox="0 0 49.652 49.652" id="icon-facebook"><title>facebook</title><path fill="currentColor" d="M24.826,0C11.137,0,0,11.137,0,24.826c0,13.688,11.137,24.826,24.826,24.826c13.688,0,24.826-11.138,24.826-24.826 C49.652,11.137,38.516,0,24.826,0z M31,25.7h-4.039c0,6.453,0,14.396,0,14.396h-5.985c0,0,0-7.866,0-14.396h-2.845v-5.088h2.845 v-3.291c0-2.357,1.12-6.04,6.04-6.04l4.435,0.017v4.939c0,0-2.695,0-3.219,0c-0.524,0-1.269,0.262-1.269,1.386v2.99h4.56L31,25.7z"/></symbol><symbol viewBox="-20 22.3 49.7 49.7" id="icon-instagram"><title>instagram</title><path fill="currentColor" d="M4.8,42.2c-2.8,0-5,2.2-5,5c0,2.8,2.2,5,5,5s5-2.2,5-5C9.8,44.4,7.6,42.2,4.8,42.2z"/><path fill="currentColor" d="M11.4,35.1H-1.8c-3.1,0-5.5,2.5-5.5,5.5v13.2c0,3.1,2.5,5.5,5.5,5.5h13.2c3,0,5.5-2.5,5.5-5.5V40.6 C16.9,37.5,14.4,35.1,11.4,35.1z M4.8,54.8c-4.2,0-7.6-3.4-7.6-7.6s3.4-7.6,7.6-7.6s7.6,3.4,7.6,7.6S9,54.8,4.8,54.8z M14.1,40.7 c-0.4,0.4-0.9,0.6-1.4,0.6c-0.5,0-1-0.2-1.4-0.6s-0.6-0.9-0.6-1.4c0-0.5,0.2-1,0.6-1.4c0.4-0.4,0.9-0.6,1.4-0.6 c0.5,0,1,0.2,1.4,0.6c0.4,0.4,0.6,0.9,0.6,1.4C14.7,39.8,14.5,40.3,14.1,40.7z"/><path fill="currentColor" d="M4.8,22.3C-8.9,22.3-20,33.5-20,47.2C-20,60.9-8.9,72,4.8,72c13.7,0,24.8-11.1,24.8-24.8C29.7,33.5,18.5,22.3,4.8,22.3z M19.5,53.8c0,4.5-3.6,8.1-8.1,8.1H-1.8c-4.5,0-8.1-3.6-8.1-8.1V40.6c0-4.5,3.6-8.1,8.1-8.1h13.2c4.5,0,8.1,3.6,8.1,8.1V53.8z"/></symbol><symbol viewBox="-7 -8.4 97.8 97.8" id="icon-linkedin"><title>linkedin</title><path fill="currentColor" d="M41.9-8.4C14.9-8.4-7,13.5-7,40.5s21.9,48.9,48.9,48.9s48.9-21.9,48.9-48.9S68.9-8.4,41.9-8.4z M29.5,61h-9.9v-32h9.9V61z M24.5,24.6c-3.2,0-5.8-2.6-5.8-5.8c0-3.2,2.6-5.8,5.8-5.8c3.2,0,5.8,2.6,5.8,5.8C30.3,22,27.7,24.6,24.5,24.6z M66.7,61h-9.9V45.4 c0-3.7-0.1-8.5-5.2-8.5c-5.2,0-6,4-6,8.2v15.8h-9.9v-32h9.5v4.4h0.1c1.3-2.5,4.6-5.2,9.4-5.2c10.1,0,11.9,6.6,11.9,15.2 C66.7,43.4,66.7,61,66.7,61z"/></symbol><symbol viewBox="0 0 49.652 49.652" id="icon-twitter"><title>twitter</title><path fill="currentColor" d="M24.826,0C11.137,0,0,11.137,0,24.826c0,13.688,11.137,24.826,24.826,24.826c13.688,0,24.826-11.138,24.826-24.826 C49.652,11.137,38.516,0,24.826,0z M35.901,19.144c0.011,0.246,0.017,0.494,0.017,0.742c0,7.551-5.746,16.255-16.259,16.255 c-3.227,0-6.231-0.943-8.759-2.565c0.447,0.053,0.902,0.08,1.363,0.08c2.678,0,5.141-0.914,7.097-2.446 c-2.5-0.046-4.611-1.698-5.338-3.969c0.348,0.066,0.707,0.103,1.074,0.103c0.521,0,1.027-0.068,1.506-0.199 c-2.614-0.524-4.583-2.833-4.583-5.603c0-0.024,0-0.049,0.001-0.072c0.77,0.427,1.651,0.685,2.587,0.714 c-1.532-1.023-2.541-2.773-2.541-4.755c0-1.048,0.281-2.03,0.773-2.874c2.817,3.458,7.029,5.732,11.777,5.972 c-0.098-0.419-0.147-0.854-0.147-1.303c0-3.155,2.558-5.714,5.713-5.714c1.644,0,3.127,0.694,4.171,1.804 c1.303-0.256,2.523-0.73,3.63-1.387c-0.43,1.335-1.333,2.454-2.516,3.162c1.157-0.138,2.261-0.444,3.282-0.899 C37.987,17.334,37.018,18.341,35.901,19.144z"/></symbol></svg>