<?xml version="1.0" encoding="utf-8"?><svg version="1.1" xmlns="http://www.w3.org/2000/svg" xmlns:xlink="http://www.w3.org/1999/xlink" x="0px" y="0px" width="46px" height="46px" viewBox="-1 3 46 46" enable-background="new -1 3 46 46" xml:space="preserve"><path fill="#FFFFFF" d="M44.6,46.5L34.2,36c3-3.5,4.8-8,4.8-13c0-11-9-20-20-20S-1,12-1,23s9,20,20,20c5,0,9.5-1.8,13-4.8 l10.4,10.4c0.3,0.3,0.7,0.4,1.1,0.4s0.8-0.1,1.1-0.4C45.2,48,45.2,47.1,44.6,46.5z M19,40C9.6,40,2,32.4,2,23S9.6,6,19,6 s17,7.6,17,17S28.4,40,19,40z"/><path fill="#FFFFFF" d="M25,21.5h-4.5V17c0-0.8-0.7-1.5-1.5-1.5s-1.5,0.7-1.5,1.5v4.5H13c-0.8,0-1.5,0.7-1.5,1.5s0.7,1.5,1.5,1.5 h4.5V29c0,0.8,0.7,1.5,1.5,1.5s1.5-0.7,1.5-1.5v-4.5H25c0.8,0,1.5-0.7,1.5-1.5S25.8,21.5,25,21.5z"/></svg>