<svg xmlns="http://www.w3.org/2000/svg" viewBox="0 0 512.001 512.001" width="512" height="512"><path d="M502 492h-8V200c0-5.522-4.477-10-10-10h-80c-5.523 0-10 4.478-10 10v107c0 5.524 4.477 10 10 10s10-4.476 10-10v-97h60v282h-60v-87.014c0-5.523-4.477-10-10-10s-10 4.477-10 10V492h-24V266c0-5.522-4.477-10-10-10h-80c-5.523 0-10 4.478-10 10v226h-28V328c0-5.522-4.477-10-10-10h-80c-5.523 0-10 4.478-10 10v164h-24V392c0-5.522-4.477-10-10-10H28c-5.523 0-10 4.478-10 10v100h-8c-5.523 0-10 4.478-10 10s4.477 10 10 10h492c5.523 0 10-4.476 10-10s-4.477-10-10-10zm-404 0H38v-90h60v90zm124 0h-60V338h60v154zm128 0h-60V276h60v216z" fill="#FFF"/><path d="M411.07 346.82c-1.86-1.86-4.44-2.92-7.07-2.92s-5.21 1.06-7.07 2.92c-1.86 1.86-2.93 4.44-2.93 7.08 0 2.63 1.07 5.2 2.93 7.07 1.86 1.862 4.44 2.93 7.07 2.93s5.21-1.07 7.07-2.93c1.86-1.87 2.93-4.44 2.93-7.07 0-2.64-1.07-5.22-2.93-7.08zM436 0c-41.906 0-76 34.093-76 76s34.095 76 76 76c41.908 0 76-34.093 76-76S477.91 0 436 0zm0 105.093c-6.253 0-11.34-4.203-11.34-9.368 0-5.523-4.477-10-10-10s-10 4.477-10 10c0 12.917 8.95 23.905 21.34 27.826v7.54c-26.12-4.73-46-27.62-46-55.09s19.88-50.35 46-55.08v8.25C413.61 33.09 404.66 44.08 404.66 57c0 16.194 14.06 29.368 31.34 29.368 6.254 0 11.342 4.203 11.342 9.37s-5.087 9.367-11.34 9.367zm10 25.995v-7.537c12.392-3.92 21.342-14.9 21.342-27.82 0-16.19-14.06-29.37-31.34-29.37-6.254 0-11.342-4.2-11.342-9.37 0-5.16 5.087-9.37 11.34-9.37 6.255 0 11.342 4.21 11.342 9.37 0 5.53 4.477 10 10 10s10-4.47 10-10c0-12.91-8.95-23.9-21.34-27.82v-8.25c26.12 4.73 46 27.623 46 55.087s-19.88 50.36-46 55.09zm-90.002-1.72h-39.15c-5.523 0-10 4.476-10 10s4.477 10 10 10h15.007l-106.92 106.92-54.32-54.32c-3.905-3.906-10.237-3.906-14.143 0L47.718 310.718c-3.905 3.903-3.905 10.235 0 14.14 1.952 1.953 4.512 2.93 7.07 2.93s5.12-.977 7.072-2.93l101.683-101.68 54.32 54.32c3.906 3.906 10.238 3.906 14.144 0l113.99-113.99v15.008c0 5.523 4.478 10 10 10s10-4.477 10-10v-39.15c0-5.523-4.476-10-10-10zM35.86 336.72c-1.86-1.86-4.44-2.93-7.07-2.93s-5.21 1.07-7.07 2.93c-1.86 1.86-2.93 4.44-2.93 7.07s1.07 5.21 2.93 7.07c1.86 1.86 4.44 2.93 7.07 2.93s5.21-1.07 7.07-2.93c1.86-1.86 2.93-4.44 2.93-7.07s-1.07-5.21-2.93-7.07z" fill="#FFF"/></svg>