<svg xmlns="http://www.w3.org/2000/svg" width="512" height="512" viewBox="0 0 612 612"><path d="M310.634 43.714H297.17c-7.194 0-13.026-5.833-13.026-13.026v-.438C284.144 13.543 270.6 0 253.894 0h-.7c-16.707 0-30.25 13.543-30.25 30.25v.438c0 7.194-5.833 13.027-13.026 13.027h-13.464c-14.34 0-25.966 11.625-25.966 25.966v.53c0 14.34 11.625 25.97 25.966 25.97h114.183c14.34 0 25.965-11.62 25.965-25.96v-.52c0-14.34-11.626-25.96-25.968-25.96zm-57.09 0c-7.244 0-13.115-5.872-13.115-13.114 0-7.243 5.87-13.115 13.11-13.115 7.24 0 13.11 5.872 13.11 13.115s-5.87 13.114-13.12 13.114zM311.928 550.8H91.8c-19.314 0-34.97-15.657-34.97-34.97V96.17c0-19.313 15.656-34.97 26.227-34.97h70.854c-.59 2.904-.91 5.914-.91 9.008 0 23.958 19.5 43.45 43.46 43.45h114.18c23.97 0 43.46-19.492 43.46-43.98 0-2.902-.31-5.732-.85-8.478h53.32c28.06 0 43.715 15.657 43.715 34.97V358.9c-2.905-.182-5.79-.443-8.74-.443-12.095 0-23.77 1.704-34.974 4.604V157.37h-306v349.716h201.52c.96 15.367 4.318 30.076 9.86 43.714zm129.585-166.114c-62.77 0-113.656 50.887-113.656 113.657S378.742 612 441.514 612 555.17 561.113 555.17 498.343s-50.884-113.657-113.655-113.657zm74.267 90.305l-69.943 78.69c-3.446 3.88-8.245 5.87-13.077 5.87-3.838 0-7.697-1.25-10.916-3.83l-43.715-34.97c-7.54-6.03-8.77-17.03-2.73-24.57 6.02-7.54 17.03-8.77 24.57-2.73l30.75 24.6 58.91-66.28c6.41-7.21 17.46-7.87 24.68-1.45 7.22 6.42 7.87 17.47 1.45 24.69zM362.83 306H135.514c-4.83 0-8.743-3.915-8.743-8.743v-8.743c0-4.83 3.92-8.743 8.75-8.743h227.31c4.83 0 8.75 3.92 8.75 8.75v8.75c0 4.83-3.91 8.75-8.74 8.75zm0-78.686H135.514c-4.83 0-8.743-3.915-8.743-8.743v-8.74c0-4.83 3.92-8.74 8.75-8.74h227.31c4.83 0 8.75 3.92 8.75 8.75v8.75c0 4.83-3.91 8.75-8.74 8.75zm-43.716 148.63h-183.6c-4.83 0-8.743-3.916-8.743-8.744v-8.743c0-4.83 3.92-8.743 8.75-8.743h183.6c4.83 0 8.75 3.914 8.75 8.743v8.743c0 4.828-3.91 8.743-8.74 8.743zM301.63 454.63H135.513c-4.83 0-8.743-3.917-8.743-8.745v-8.743c0-4.83 3.916-8.743 8.744-8.743H301.63c4.83 0 8.743 3.91 8.743 8.74v8.74c0 4.83-3.915 8.74-8.744 8.74z" fill="#FFF"/></svg>