<svg xmlns="http://www.w3.org/2000/svg" viewBox="0 0 512 512" width="512" height="512"><path d="M451.72 237.26c-17.422-8.71-50.087-8.81-51.47-8.81-4.14 0-7.5 3.357-7.5 7.5 0 4.14 3.36 7.5 7.5 7.5 8.43 0 32.903 1.298 44.762 7.227 1.077.54 2.22.793 3.348.793 2.75 0 5.4-1.52 6.714-4.147 1.853-3.705.35-8.21-3.354-10.063z" fill="#FFF"/><path d="M489.112 344.04l-30.975-8.85c-1.337-.38-2.27-1.62-2.27-3.01v-10.34c2.52-1.745 4.923-3.7 7.17-5.88 10.89-10.568 16.887-24.743 16.887-39.915v-14.267l2.995-5.99c3.28-6.574 5.02-13.935 5.02-21.285v-38.65c0-4.142-3.36-7.5-7.5-7.5h-72.17c-26.25 0-47.6 21.352-47.6 47.596v.44c0 6.11 1.44 12.23 4.18 17.7l3.84 7.68v12.25c0 19.41 9.57 36.83 24.06 47.31v10.83c0 1.67 0 2.36-6.19 4.13l-15.12 4.32-43.72-15.9c.15-2.066-.54-4.16-2.05-5.74l-13.97-14.68v-24.64c1.48-1.22 2.93-2.47 4.34-3.79 17.62-16.52 27.73-39.846 27.73-63.99V192.2c5.32-11.58 8.02-23.833 8.02-36.454V75.56c0-4.14-3.36-7.5-7.5-7.5H232.04c-39.51 0-71.654 32.145-71.654 71.654v16.036c0 12.62 2.697 24.877 8.02 36.458v16.93c0 28.038 12.465 53.296 32.076 69.948v25.22l-13.97 14.68c-1.505 1.58-2.2 3.68-2.044 5.74l-46.145 16.78c-3.343 1.216-6.45 2.863-9.27 4.858l-7.247-3.624c21.57-9.39 28.403-22.594 28.73-23.25 1.057-2.11 1.057-4.597 0-6.708-5.406-10.814-6.06-30.635-6.587-46.56-.18-5.303-.34-10.312-.66-14.772-2.56-35.974-29.91-63.103-63.62-63.103s-61.06 27.13-63.62 63.104c-.32 4.46-.49 9.47-.66 14.78-.53 15.93-1.19 35.75-6.59 46.56-1.06 2.11-1.06 4.6 0 6.71.33.66 7.14 13.84 28.76 23.24L17.44 352.8C6.68 358.177 0 368.997 0 381.02v55.41c0 4.14 3.358 7.5 7.5 7.5s7.5-3.36 7.5-7.5v-55.41c0-6.312 3.507-11.987 9.152-14.81l25.063-12.53 8.718 8.284c6.096 5.793 13.916 8.688 21.74 8.688 7.82 0 15.644-2.897 21.738-8.688l8.72-8.284 8.17 4.086c-3.84 6.157-6.03 13.377-6.03 20.94v57.725c0 4.15 3.36 7.5 7.5 7.5 4.14 0 7.5-3.35 7.5-7.5v-57.72c0-10.29 6.5-19.57 16.18-23.09l48.65-17.69 20.26 30.38c2.59 3.89 6.74 6.38 11.39 6.84.52.05 1.04.08 1.55.08 4.1 0 8.03-1.61 10.96-4.54l12.36-12.36v78.124c0 4.14 3.36 7.5 7.5 7.5 4.14 0 7.5-3.36 7.5-7.5v-78.13l12.36 12.356c2.93 2.93 6.855 4.544 10.954 4.544.515 0 1.03-.023 1.548-.074 4.65-.46 8.798-2.95 11.387-6.834l20.252-30.38 48.65 17.69c9.677 3.52 16.18 12.804 16.18 23.1v57.725c0 4.14 3.357 7.5 7.5 7.5 4.14 0 7.5-3.36 7.5-7.5v-57.73c0-10.43-4.144-20.21-11.094-27.44l1.85-.53c1.87-.53 4.42-1.26 6.98-2.52l19.15 19.15v69.07c0 4.142 3.36 7.5 7.5 7.5 4.144 0 7.5-3.358 7.5-7.5v-69.07l19.02-19.017c1.01.516 2.07.95 3.19 1.27l30.97 8.85c7.07 2.02 12.01 8.57 12.01 15.92v62.05c0 4.14 3.36 7.5 7.5 7.5 4.14 0 7.5-3.36 7.5-7.5V374.4c0-14.02-9.41-26.5-22.89-30.35zM48.115 330.795c-14.03-5.048-21.066-11.778-24.07-15.453 2.048-5.353 3.376-11.485 4.275-17.958 4.136 9.917 11.063 18.383 19.795 24.423v8.99zm42.965 20.298c-6.397 6.078-16.418 6.077-22.813 0l-6.975-6.63c1.177-2.204 1.824-4.704 1.824-7.323v-7.995c5.232 1.635 10.794 2.517 16.558 2.517 5.757 0 11.316-.886 16.557-2.512v7.988c0 2.62.65 5.12 1.83 7.327l-6.97 6.627zm-11.404-34.43c-22.396 0-40.615-18.22-40.615-40.615 0-4.142-3.35-7.5-7.5-7.5-.42 0-.83.043-1.23.11l.07-1.93c.17-5.157.33-10.028.63-14.206.96-13.475 6.35-25.893 15.17-34.967 8.9-9.155 20.8-14.198 33.49-14.198s24.59 5.042 33.49 14.198c8.82 9.074 14.21 21.492 15.17 34.968.297 4.178.46 9.048.63 14.204l.047 1.338c-8.16-12.572-20.76-21.837-37.043-27.07-15.042-4.832-27.98-4.533-28.526-4.52-1.964.056-3.83.878-5.19 2.292L44.71 252.8c-2.878 2.983-2.79 7.73.19 10.606s7.73 2.788 10.6-.193l11.26-11.677c9.695.474 40.892 4.102 53.025 30.82-3.05 19.687-19.974 34.31-40.114 34.31zm31.553 14.157v-8.946c8.72-6.007 15.66-14.457 19.8-24.45.9 6.46 2.22 12.577 4.27 17.92-2.99 3.64-10.06 10.43-24.07 15.475zm72.17-121.675v-18.608c0-1.13-.26-2.244-.75-3.26-4.83-9.995-7.28-20.6-7.28-31.52V139.72c0-31.24 25.41-56.653 56.65-56.653H336.8v72.692c0 10.92-2.447 21.52-7.273 31.51-.49 1.01-.747 2.13-.747 3.26v21.35c0 20.31-8.165 39.15-22.99 53.04-1.852 1.73-3.773 3.36-5.76 4.87-.043.03-.085.063-.128.094-13.89 10.543-30.902 15.67-48.668 14.52-38.04-2.466-67.84-35.53-67.84-75.286zm42.23 150.91c-.06.053-.18.176-.42.15-.25-.024-.34-.167-.38-.23l-23.33-34.987 7.5-7.888 35.38 24.19-18.77 18.77zm30.46-28.942l-40.61-27.763v-14c10.51 5.682 22.27 9.235 34.79 10.045 1.97.128 3.94.19 5.9.19 14.34 0 28.14-3.427 40.54-9.934v13.7l-40.62 27.77zm31.26 28.865c-.04.062-.14.205-.38.23-.25.03-.37-.1-.42-.15l-18.76-18.768 35.38-24.186 7.5 7.887-23.33 34.99zm136.95-6.328l-17.02-17.02c.3-1.348.46-2.825.46-4.454v-3.165c4.72 1.55 9.7 2.47 14.85 2.63.58.02 1.15.03 1.73.03 5.69 0 11.24-.86 16.53-2.5v3.02c0 1.5.19 2.96.54 4.37l-17.1 17.1zm28.28-48.454c-7.95 7.714-18.45 11.788-29.54 11.446-21.71-.65-39.36-19.768-39.36-42.613V260c0-1.165-.27-2.313-.8-3.354l-4.63-9.266c-1.7-3.395-2.6-7.195-2.6-10.99v-.448c0-17.975 14.624-32.597 32.597-32.597h64.676v31.15c0 5.034-1.19 10.075-3.44 14.58l-3.787 7.57c-.52 1.043-.79 2.19-.79 3.355v16.038c0 11.08-4.38 21.432-12.335 29.15z" fill="#FFF"/><path d="M472.423 380.814c-4.142 0-7.5 3.358-7.5 7.5v48.115c0 4.14 3.358 7.5 7.5 7.5 4.142 0 7.5-3.36 7.5-7.5v-48.12c0-4.14-3.358-7.5-7.5-7.5zm-432.846 9.914c-4.142 0-7.5 3.358-7.5 7.5v38.2c0 4.143 3.358 7.5 7.5 7.5 4.142 0 7.5-3.357 7.5-7.5v-38.2c0-4.14-3.358-7.5-7.5-7.5zm277.955-232.253c-28.366-28.366-87.715-22.943-111.917-19.295-7.623 1.15-13.155 7.6-13.155 15.34v17.277c0 4.142 3.358 7.5 7.5 7.5 4.142 0 7.5-3.358 7.5-7.5v-17.28c0-.254.168-.472.392-.506 9.667-1.45 28.85-3.7 48.725-2.38 23.388 1.56 40.328 7.43 50.35 17.45 2.928 2.93 7.677 2.93 10.605 0 2.93-2.92 2.93-7.67 0-10.6zM167.884 396.853c-4.142 0-7.5 3.358-7.5 7.5v32.077c0 4.142 3.358 7.5 7.5 7.5 4.142 0 7.5-3.358 7.5-7.5v-32.077c0-4.14-3.358-7.5-7.5-7.5zm176.422 0c-4.142 0-7.5 3.358-7.5 7.5v32.077c0 4.142 3.358 7.5 7.5 7.5 4.142 0 7.5-3.358 7.5-7.5v-32.077c0-4.14-3.358-7.5-7.5-7.5z" fill="#FFF"/></svg>